<?xml version="1.0" encoding="utf-8"?>
<!DOCTYPE svg PUBLIC "-//W3C//DTD SVG 1.0//EN" "http://www.w3.org/TR/2001/REC-SVG-20010904/DTD/svg10.dtd">
<svg version="1.0" xmlns="http://www.w3.org/2000/svg" width="525px" height="300px" viewBox="0 0 525 300" preserveAspectRatio="xMidYMid meet">
 <g fill="#201f34">
  <path d="M0 150 l0 -150 262.50 0 262.50 0 0 150 0 150 -262.50 0 -262.50 0 0 -150z m111.60 94.84 c-0.08 -1.37 -0.12 -0.27 -0.12 2.42 0 2.70 0.04 3.79 0.12 2.46 0.08 -1.37 0.08 -3.55 0 -4.88z m254.30 0 c-0.08 -1.37 -0.12 -0.27 -0.12 2.42 0 2.70 0.04 3.79 0.12 2.46 0.08 -1.37 0.08 -3.55 0 -4.88z m-161.99 5.74 c0 -0.70 -0.20 -0.98 -0.78 -0.98 -0.78 0 -0.78 0.04 -0.16 0.98 0.35 0.55 0.70 0.98 0.78 0.98 0.08 0 0.16 -0.43 0.16 -0.98z m92.50 -3.59 c-0.08 -4.53 -0.08 -4.57 -0.20 -0.98 -0.12 3.28 -0.20 3.59 -0.94 3.59 -0.74 0 -0.74 0.04 -0.08 0.98 0.39 0.51 0.82 0.98 1.02 0.98 0.16 0 0.23 -2.07 0.20 -4.57z m11.21 -4.45 c0.66 -0.27 0.63 -0.31 -0.27 -0.31 l-1.09 -0.04 0.08 4.80 0.08 4.77 0.20 -4.45 c0.20 -3.98 0.31 -4.49 1.02 -4.77z m74.34 4.45 c-0.08 -4.49 -0.08 -4.53 -0.20 -1.02 -0.12 2.77 -0.27 3.59 -0.74 3.71 -0.51 0.12 -0.51 0.23 0.04 1.02 0.35 0.47 0.70 0.86 0.82 0.86 0.08 0 0.12 -2.07 0.08 -4.57z m23.83 0.20 c-0.08 -3.98 -0.08 -4.10 -0.20 -1.17 -0.16 2.93 -0.23 3.20 -0.94 3.20 -0.78 0 -0.78 0 0.04 1.17 0.47 0.66 0.90 1.17 1.02 1.17 0.08 0 0.12 -1.99 0.08 -4.38z m-273.48 -2.73 c-0.08 -0.94 -0.16 -0.27 -0.16 1.45 0 1.72 0.08 2.46 0.16 1.68 0.08 -0.82 0.08 -2.23 0 -3.13z m257.42 -0.59 c-0.08 -0.82 -0.16 -0.23 -0.16 1.25 0 1.52 0.08 2.15 0.16 1.48 0.08 -0.70 0.08 -1.95 0 -2.73z m-217.07 0.98 c0 -1.09 -0.04 -1.91 -0.12 -1.84 -0.08 0.08 -0.63 0.98 -1.21 2.03 l-1.05 1.84 1.21 0 c1.17 0 1.17 -0.04 1.17 -2.03z m-9.53 0.20 c-1.25 -2.30 -1.41 -2.34 -1.41 -0.59 0 1.48 0.08 1.64 0.98 1.64 0.98 0 0.98 -0.04 0.43 -1.05z m94.30 0.90 c0 -0.31 -1.64 -2.97 -1.80 -2.97 -0.08 0 -0.16 0.70 -0.16 1.56 0 1.41 0.12 1.56 0.98 1.56 0.55 0 0.98 -0.08 0.98 -0.16z m8.98 -1.21 c0 -0.74 -0.08 -1.37 -0.16 -1.37 -0.08 0 -0.51 0.63 -0.98 1.37 l-0.78 1.37 0.94 0 c0.86 0 0.98 -0.16 0.98 -1.37z m23.20 0.12 c-0.63 -0.70 -1.25 -1.45 -1.41 -1.64 -0.20 -0.23 -0.31 0.35 -0.31 1.25 0 1.64 0 1.64 1.45 1.64 l1.45 0 -1.17 -1.25z m109.22 -0.31 c-0.66 -0.86 -1.33 -1.56 -1.41 -1.56 -0.08 0 -0.16 0.70 -0.16 1.56 0 1.52 0.04 1.56 1.41 1.56 l1.41 0 -1.25 -1.56z m-201.52 0.51 c-0.23 -0.39 -0.74 -1.13 -1.17 -1.68 l-0.82 -0.98 0 1.68 c0 1.56 0.04 1.64 1.17 1.64 1.02 0 1.13 -0.08 0.82 -0.66z m177.30 -0.90 c-0.47 -0.63 -0.90 -1.17 -1.02 -1.17 -0.08 0 -0.16 0.55 -0.16 1.17 0 1.02 0.16 1.17 1.02 1.17 l0.98 0 -0.82 -1.17z m-189.84 -0.16 c0 -0.47 -0.51 -1.41 -0.78 -1.41 -0.16 0 -0.39 0.35 -0.51 0.78 -0.16 0.59 0 0.78 0.55 0.78 0.39 0 0.74 -0.08 0.74 -0.16z m31.25 -0.12 c0 -0.20 -0.20 -0.59 -0.39 -0.90 -0.35 -0.51 -0.43 -0.51 -0.78 0 -0.59 0.86 -0.47 1.17 0.39 1.17 0.43 0 0.78 -0.12 0.78 -0.27z m-129.69 -21.02 l0 -3.71 -16.29 -0.04 c-17.62 0 -18.36 -0.08 -19.80 -2.03 -0.78 -1.05 -0.82 -1.56 -0.82 -11.80 0 -10.27 0.04 -10.74 0.82 -11.80 0.55 -0.74 1.33 -1.17 2.34 -1.37 0.82 -0.16 6.80 -0.27 13.24 -0.27 6.45 -0.04 13.71 -0.16 16.13 -0.31 l4.38 -0.23 0 -3.67 0 -3.63 -16.72 0 c-18.05 0 -19.10 0.12 -22.34 2.15 -2.46 1.56 -4.61 4.38 -5.47 7.15 -0.70 2.23 -0.78 3.63 -0.78 11.95 0 10.55 0.23 12.03 2.46 15.31 1.64 2.50 4.06 4.26 7.03 5.20 2.23 0.70 3.63 0.78 19.14 0.78 l16.68 0.04 0 -3.71z m17.27 -4.96 l0.12 -8.71 9.34 0 9.38 0 3.91 8.67 3.95 8.71 4.22 0 c2.30 0 4.18 -0.08 4.18 -0.20 0 -0.08 -1.56 -3.55 -3.52 -7.70 -4.18 -8.95 -4.38 -10 -1.95 -11.25 5.66 -2.89 8.13 -10.39 5.27 -16.13 -1.29 -2.62 -3.75 -5.04 -6.37 -6.25 -1.80 -0.82 -2.23 -0.86 -19.30 -0.98 l-17.50 -0.12 0 21.33 0 21.29 4.10 0 4.10 0 0.08 -8.67z m52.97 -12.70 l0.08 -21.21 -4.10 0 -4.10 0 0 21.29 0 21.33 4.02 -0.12 3.98 -0.12 0.12 -21.17z m45.08 19.88 c1.41 -0.70 3.20 -1.99 4.02 -2.85 5.90 -6.56 4.18 -15.78 -3.63 -19.41 -2.23 -1.05 -2.27 -1.05 -14.14 -1.25 -10.51 -0.16 -12.07 -0.27 -13.01 -0.86 -1.99 -1.33 -2.38 -6.37 -0.63 -7.97 0.82 -0.74 6.02 -0.94 32.30 -1.29 l2.42 -0.04 0 -3.71 0 -3.75 -17.11 0.12 -17.07 0.12 -2.62 1.29 c-7.81 3.83 -9.53 13.67 -3.44 19.57 0.90 0.86 2.62 2.07 3.83 2.66 l2.23 1.09 11.91 0.20 c6.56 0.12 12.23 0.35 12.58 0.55 2.11 1.02 2.50 6.45 0.55 8.36 l-1.02 1.05 -16.60 0.12 -16.60 0.12 0 3.71 0 3.71 16.72 -0.12 16.68 -0.12 2.62 -1.29z m24.57 0.82 c0.04 -0.39 0.04 -2.27 0 -4.22 0 -1.91 -0.04 -11.21 -0.04 -20.59 l0 -17.11 -3.91 0 -3.91 0 0 21.29 0 21.29 3.91 0 c3.44 0 3.91 -0.08 3.95 -0.66z m43.24 -0.04 c4.77 -1.52 8.36 -5.31 9.41 -9.96 0.39 -1.88 0.39 -2.58 -0.16 -4.61 -0.74 -3.01 -1.68 -4.57 -3.95 -6.56 -3.13 -2.73 -3.95 -2.89 -17.15 -3.13 -10.27 -0.20 -11.88 -0.31 -12.81 -0.90 -2.27 -1.52 -2.38 -6.64 -0.16 -8.28 1.02 -0.74 1.68 -0.78 17.66 -0.94 l16.60 -0.16 0 -3.67 0 -3.67 -16.33 0 c-17.97 0 -18.59 0.08 -22.07 2.34 -3.83 2.58 -6.29 8.16 -5.35 12.30 0.94 4.26 3.40 7.27 7.42 9.14 2.15 1.02 2.23 1.02 14.18 1.21 l12.07 0.20 0.94 1.09 c0.78 0.90 0.94 1.52 0.94 3.63 0 2.97 -0.35 3.83 -1.95 4.65 -0.94 0.51 -3.63 0.59 -17.19 0.59 l-16.02 0 0 3.71 0 3.71 15.78 0 c14.26 0 16.02 -0.08 18.13 -0.70z m86.33 -3.09 l-0.12 -3.83 -16.99 -0.20 c-9.34 -0.12 -17.30 -0.35 -17.66 -0.51 -0.35 -0.20 -0.94 -0.94 -1.25 -1.64 -0.55 -1.09 -0.63 -3.52 -0.63 -16.95 l0 -15.70 -3.98 0.12 -4.02 0.12 -0.12 14.65 c-0.12 15.31 0.08 17.93 1.52 20.82 1.52 2.93 5.16 5.70 8.71 6.56 0.66 0.16 8.75 0.27 17.93 0.31 l16.72 0.04 -0.12 -3.79z m16.48 -1.88 l0 -5.66 14.65 0 14.65 0 0 5.66 0 5.66 4.14 0 4.10 0 -0.12 -15.90 -0.12 -15.94 -1.13 -2.42 c-1.29 -2.85 -4.38 -5.94 -7.15 -7.27 -1.80 -0.82 -2.27 -0.86 -14.18 -0.86 l-12.30 0 -2.15 1.05 c-3.28 1.60 -5.27 3.52 -6.72 6.48 l-1.29 2.58 -0.20 12.34 c-0.12 6.76 -0.16 14.02 -0.08 16.13 l0.12 3.79 3.91 0 3.87 0 0 -5.66z m83.05 4.88 c3.83 -1.88 7.19 -6.95 7.50 -11.41 0.16 -2.30 0.04 -2.89 -1.05 -5.20 -1.52 -3.32 -1.52 -4.65 0.08 -7.70 1.05 -2.03 1.25 -2.81 1.21 -4.96 -0.04 -4.69 -3.05 -9.22 -7.50 -11.29 l-2.23 -1.05 -16.91 -0.12 c-12.46 -0.08 -17.11 0 -17.50 0.35 -0.47 0.39 -0.55 3.91 -0.55 21.29 l0 20.86 17.66 0 c16.95 0 17.70 -0.04 19.30 -0.78z m-197.81 -61.91 c7.07 -3.40 14.18 -7.81 19.26 -11.95 3.36 -2.73 10.55 -10.08 13.75 -14.02 3.63 -4.53 9.49 -13.79 9.49 -15.04 0 -0.12 -1.76 -0.20 -3.91 -0.20 l-3.91 0 -0.82 1.68 c-5.94 11.76 -19.14 24.10 -33.48 31.29 -1.99 1.02 -4.14 1.80 -4.80 1.80 -2.19 0 -11.52 -5.47 -18.75 -10.98 -6.60 -5.04 -14.06 -13.36 -18.13 -20.27 l-1.88 -3.13 -3.83 0 c-2.15 0 -3.87 0.08 -3.87 0.20 0 0.59 2.50 5.08 4.57 8.20 6.64 10.04 18.13 20.82 29.18 27.30 3.55 2.07 12.70 6.84 13.20 6.88 0.12 0 1.88 -0.78 3.91 -1.76z m0.47 -28.01 c0.27 -0.51 0.90 -2.03 1.33 -3.44 5.82 -18.48 8.48 -26.48 8.98 -27.07 0.47 -0.55 1.09 -0.66 2.73 -0.59 l2.15 0.12 1.13 3.13 c2.77 7.66 3.09 8.36 3.95 8.63 0.66 0.20 1.13 -0.12 2.50 -1.64 l1.64 -1.91 24.45 -0.12 24.41 -0.16 1.17 -0.98 c1.37 -1.13 1.45 -1.68 0.47 -2.58 -0.66 -0.59 -3.28 -0.66 -27.77 -0.74 l-27.07 -0.12 -3.40 -9.38 c-2.81 -7.89 -3.48 -9.38 -4.18 -9.49 -0.43 -0.08 -0.98 0.12 -1.21 0.39 -0.23 0.27 -2.11 5.86 -4.22 12.42 -5.59 17.66 -5.74 18.09 -6.33 19.26 -0.47 0.94 -0.74 1.09 -1.95 0.98 -1.13 -0.08 -1.48 -0.31 -1.72 -1.09 -0.16 -0.55 -1.72 -5.47 -3.44 -10.94 -1.72 -5.47 -4.45 -14.26 -6.09 -19.49 -1.60 -5.23 -3.13 -9.84 -3.36 -10.23 -0.47 -0.94 -1.41 -0.94 -1.95 -0.04 -0.23 0.39 -2.42 6.68 -4.80 13.95 l-4.38 13.28 -2.50 0.23 c-1.41 0.16 -14.14 0.27 -28.36 0.31 l-25.82 0.04 -0.86 0.90 c-0.86 0.94 -0.86 0.94 -0.08 1.88 l0.74 0.94 29.34 0.12 29.30 0.08 0.59 -1.05 c0.27 -0.63 1.45 -3.71 2.58 -6.95 2.70 -7.81 2.62 -7.70 5.39 -7.54 l2.23 0.12 4.18 13.48 c2.34 7.42 4.92 15.94 5.82 18.95 1.68 5.78 2.34 7.23 3.28 7.23 0.31 0 0.82 -0.39 1.13 -0.86z m-52.66 -39.65 c-0.63 -5.23 -0.98 -10.35 -1.02 -14.18 0 -5.66 0.78 -14.92 1.33 -15.51 0.23 -0.27 1.91 -0.78 3.75 -1.09 13.95 -2.62 26.95 -8.36 38.95 -17.23 2.62 -1.95 3.01 -2.11 4.96 -2.11 1.68 0 2.38 0.20 3.24 0.94 2.30 1.95 9.84 6.80 13.79 8.91 8.01 4.30 16.52 7.30 25.20 8.91 2.58 0.47 4.88 0.94 5.12 0.98 0.63 0.20 0.90 3.05 1.17 12.50 0.23 7.50 -0.04 13.71 -0.86 18.67 l-0.27 1.48 3.87 -0.12 3.87 -0.12 0.55 -3.32 c0.82 -5.04 0.70 -22.42 -0.23 -29.69 l-0.70 -5.63 -4.49 -0.66 c-18.13 -2.58 -31.45 -8.24 -44.96 -19.18 -2.19 -1.80 -4.30 -3.48 -4.69 -3.75 -0.63 -0.47 -0.98 -0.27 -3.16 1.56 -12.70 10.74 -25.74 17.19 -40.82 20.20 -3.20 0.66 -7.07 1.29 -8.59 1.45 -1.56 0.16 -2.85 0.39 -2.85 0.51 0 0.16 -0.27 2.27 -0.59 4.73 -0.98 7.46 -1.45 17.89 -0.98 23.32 0.39 5 1.05 9.77 1.41 10.35 0.12 0.16 1.80 0.31 3.75 0.31 l3.55 0 -0.27 -2.23z m17.58 -9.65 c0.82 -0.82 1.33 -1.72 1.33 -2.34 0 -1.13 -2.07 -3.55 -3.32 -3.91 -1.09 -0.31 -3.13 1.02 -3.91 2.54 -0.82 1.56 -0.27 3.09 1.52 4.26 1.76 1.09 2.85 0.98 4.38 -0.55z m64.84 0.63 c2.77 -2.23 2.46 -4.92 -0.70 -6.56 -0.98 -0.51 -1.25 -0.51 -2.27 0.04 -1.56 0.82 -2.81 2.81 -2.54 4.10 0.31 1.37 2.34 3.13 3.63 3.13 0.59 0 1.45 -0.31 1.88 -0.70z m-48.20 -16.88 c0.35 0 0.78 -0.16 0.90 -0.39 0.12 -0.20 0.55 -0.39 0.90 -0.39 0.35 0 1.09 -0.35 1.64 -0.78 l0.98 -0.78 -1.17 0.35 c-2.27 0.66 -4.38 1.52 -6.72 2.73 -3.44 1.72 -3.44 2.27 -0.04 0.63 1.56 -0.74 3.13 -1.37 3.52 -1.37z m15.70 -0.43 c0.55 -0.43 1.29 -1.29 1.60 -1.88 0.47 -0.98 0.47 -1.25 -0.12 -2.42 -0.35 -0.70 -1.25 -1.64 -1.99 -2.07 -1.33 -0.74 -1.33 -0.74 -2.70 0 -0.74 0.39 -1.68 1.33 -2.07 2.07 -0.63 1.17 -0.63 1.45 -0.16 2.42 0.74 1.41 2.42 2.70 3.52 2.70 0.47 0 1.33 -0.35 1.91 -0.82z"/>
  <path d="M103.52 196.88 c0 -4.69 0 -4.73 1.02 -5.08 1.37 -0.55 23.13 -0.51 24.65 0.04 1.80 0.63 2.62 2.42 2.38 5.43 -0.16 2.07 -0.35 2.62 -1.25 3.40 l-1.05 0.90 -12.89 0 -12.85 0 0 -4.69z"/>
  <path d="M372.27 200.78 l0 -5.86 1.33 -1.48 1.33 -1.45 11.84 -0.12 c9.22 -0.12 12.03 0 12.77 0.39 1.64 0.86 2.03 2.50 2.03 8.71 l0 5.66 -14.65 0 -14.65 0 0 -5.86z"/>
  <path d="M426.84 218.87 c-0.51 -0.47 -0.31 -8.52 0.20 -9.02 0.35 -0.35 3.83 -0.47 13.28 -0.47 15.20 0 14.38 -0.23 14.38 4.34 0 5.43 -0.04 5.43 -15.55 5.43 -6.64 0 -12.19 -0.12 -12.30 -0.27z"/>
  <path d="M426.84 201.29 c-0.16 -0.12 -0.27 -2.03 -0.27 -4.22 0 -3.36 0.12 -4.06 0.70 -4.61 0.63 -0.59 2.15 -0.66 13.05 -0.66 6.80 0 12.66 0.12 13.01 0.23 1.52 0.59 2.30 4.88 1.37 7.34 -0.78 2.07 -1.60 2.19 -15.16 2.19 -6.84 0 -12.58 -0.12 -12.70 -0.27z"/>
 </g>
 <g fill="#fefefe">
  <path d="M83.59 252.66 c-4.38 -2.23 -4.77 -7.58 -0.74 -10.55 1.41 -1.05 4.96 -1.37 6.52 -0.55 1.60 0.82 1.84 1.33 1.05 2.19 -0.63 0.66 -0.78 0.70 -1.48 0.20 -1.33 -0.90 -3.55 -0.74 -4.88 0.39 -1.33 1.13 -1.72 2.46 -1.17 4.34 0.59 2.23 4.06 3.28 6.09 1.88 0.82 -0.59 0.98 -0.59 1.68 0.08 0.70 0.63 0.70 0.70 0.12 1.41 -0.70 0.74 -2.85 1.48 -4.45 1.48 -0.55 0 -1.80 -0.39 -2.73 -0.86z"/>
  <path d="M95.66 253.24 c-0.16 -0.94 -0.20 -10.59 -0.04 -11.13 0.16 -0.63 0.66 -0.70 3.83 -0.70 3.44 0 3.75 0.08 4.84 1.09 0.98 0.86 1.21 1.37 1.25 2.70 0 1.64 -0.90 3.63 -1.64 3.63 -0.70 0 -0.39 1.05 0.78 2.66 0.66 0.90 1.17 1.72 1.17 1.84 0 0.12 -0.63 0.20 -1.37 0.20 -1.17 0 -1.45 -0.20 -2.38 -1.80 -0.98 -1.64 -1.13 -1.76 -2.46 -1.64 -1.33 0.12 -1.41 0.20 -1.60 1.68 -0.16 1.37 -0.35 1.56 -1.25 1.68 -0.63 0.08 -1.13 0 -1.13 -0.20z m6.84 -6.21 c0.74 -0.70 0.82 -2.54 0.16 -3.20 -0.27 -0.27 -1.41 -0.47 -2.54 -0.47 l-2.07 0 0 2.15 0 2.15 1.91 0 c1.25 0 2.15 -0.23 2.54 -0.63z"/>
  <path d="M110.35 253.05 c-0.12 -0.31 -0.16 -3.09 -0.12 -6.17 l0.12 -5.66 1.17 0 1.17 0 0 6.05 0 6.05 -1.09 0.12 c-0.63 0.08 -1.13 -0.08 -1.25 -0.39z"/>
  <path d="M118.75 252.97 c-1.48 -0.55 -1.91 -1.41 -1.02 -2.15 0.43 -0.35 0.78 -0.39 1.41 -0.04 0.43 0.23 1.72 0.39 2.85 0.31 1.88 -0.12 2.03 -0.20 2.03 -1.09 0 -0.82 -0.27 -1.05 -1.76 -1.48 -4.14 -1.21 -5.43 -2.46 -4.88 -4.65 0.47 -1.91 1.52 -2.46 4.80 -2.46 3.44 0 4.41 0.39 3.75 1.45 -0.27 0.39 -0.78 0.66 -1.17 0.59 -0.43 -0.04 -1.37 -0.20 -2.11 -0.31 -0.90 -0.16 -1.64 0 -2.15 0.39 -1.17 0.90 -0.35 1.84 2.30 2.62 3.16 0.94 3.83 1.64 3.67 3.83 -0.12 1.52 -0.31 1.91 -1.45 2.66 -1.52 1.02 -4.02 1.17 -6.29 0.35z"/>
  <path d="M139.73 252.97 c-0.82 -0.31 -1.60 -0.66 -1.76 -0.82 -0.47 -0.43 0.59 -1.56 1.33 -1.41 0.43 0.08 1.80 0.16 3.09 0.20 2.27 0.04 2.34 0 2.34 -0.94 0 -0.82 -0.27 -1.05 -1.76 -1.48 -2.89 -0.82 -4.41 -1.76 -4.80 -2.93 -0.43 -1.33 0.16 -3.01 1.33 -3.71 1.91 -1.21 7.38 -0.86 7.38 0.51 0 1.02 -0.94 1.33 -2.62 0.86 -2.11 -0.55 -3.75 0.08 -3.55 1.37 0.08 0.74 0.59 1.02 2.62 1.56 3.05 0.82 4.10 1.76 4.10 3.63 0 2.11 -1.48 3.40 -4.14 3.59 -1.17 0.08 -2.73 -0.12 -3.55 -0.43z"/>
  <path d="M160.55 247.23 l0 -6.25 1.09 0.12 c0.86 0.08 1.41 0.74 3.20 3.71 1.17 1.99 2.27 3.63 2.38 3.63 0.16 0 1.17 -1.56 2.30 -3.52 1.84 -3.16 2.15 -3.52 3.16 -3.52 l1.17 0 -0.12 5.98 -0.12 5.94 -1.05 0.12 -1.09 0.12 0 -2.73 c0 -2.38 -0.08 -2.77 -0.66 -2.77 -0.39 0 -1.25 0.86 -1.99 1.99 -0.70 1.09 -1.48 1.91 -1.76 1.84 -0.27 -0.12 -1.09 -1.13 -1.91 -2.27 -0.78 -1.17 -1.60 -2.19 -1.84 -2.27 -0.27 -0.08 -0.43 0.82 -0.43 2.77 0 2.30 -0.12 2.97 -0.63 3.16 -1.68 0.66 -1.72 0.55 -1.72 -6.05z"/>
  <path d="M177.73 253.16 c0 -0.39 2.85 -7.30 4.14 -10 0.86 -1.84 1.21 -2.15 2.42 -2.15 0.70 0 1.09 0.51 2.15 2.85 2.73 5.98 3.91 8.87 3.75 9.02 -0.08 0.08 -0.55 0.27 -1.02 0.39 -0.74 0.23 -1.02 0.04 -1.56 -1.09 l-0.66 -1.41 -2.85 0 -2.85 0 -0.66 1.37 c-0.51 1.09 -0.90 1.37 -1.76 1.37 -0.59 0 -1.09 -0.16 -1.09 -0.35z m7.62 -6.13 c-0.31 -0.78 -0.59 -1.48 -0.59 -1.56 0 -0.08 -0.35 -0.16 -0.78 -0.16 -0.43 0 -0.78 0.08 -0.78 0.16 0 0.08 -0.27 0.78 -0.59 1.56 l-0.59 1.41 1.95 0 1.95 0 -0.59 -1.41z"/>
  <path d="M194.41 253.24 c-0.16 -0.12 -0.27 -2.85 -0.27 -6.02 0 -4.96 0.08 -5.78 0.63 -5.98 1.17 -0.43 1.88 0.12 4.65 3.67 1.52 1.91 2.85 3.52 3.05 3.52 0.16 0 0.27 -1.68 0.27 -3.75 l0 -3.71 1.09 0.12 1.05 0.12 0.12 5.98 0.12 5.94 -1.13 0 c-0.94 0 -1.56 -0.51 -3.63 -3.13 -2.73 -3.40 -3.91 -3.98 -3.79 -1.84 0.04 0.66 0.04 2.19 0 3.32 -0.08 1.84 -0.16 2.03 -0.98 2.03 -0.51 0 -1.05 -0.12 -1.17 -0.27z"/>
  <path d="M208.98 253.05 c0 -0.27 1.09 -3.01 2.42 -6.05 l2.38 -5.59 1.45 0 1.41 0 2.42 5.74 c1.52 3.55 2.30 5.86 2.11 6.05 -0.70 0.70 -1.84 0.12 -2.38 -1.17 l-0.59 -1.29 -2.93 0.12 c-2.77 0.12 -2.93 0.16 -3.55 1.29 -0.66 1.25 -2.73 1.91 -2.73 0.90z m7.81 -4.96 c0 -1.05 -0.94 -2.77 -1.52 -2.77 -0.55 0 -1.99 2.15 -1.99 2.93 0 0.12 0.78 0.20 1.76 0.20 0.98 0 1.76 -0.16 1.76 -0.35z"/>
  <path d="M228.71 253.05 c-1.76 -0.63 -3.67 -2.62 -4.14 -4.30 -0.59 -2.23 -0.08 -4.10 1.60 -5.78 2.03 -2.03 4.84 -2.50 7.81 -1.33 1.80 0.70 1.88 0.94 0.78 1.91 -0.63 0.55 -0.90 0.63 -1.25 0.27 -0.27 -0.27 -1.33 -0.47 -2.38 -0.47 -1.56 0 -2.07 0.20 -3.05 1.13 -1.60 1.64 -1.60 3.95 0.04 5.55 1.02 1.02 1.41 1.17 3.01 1.05 l1.88 -0.12 0.20 -1.95 c0.20 -1.76 0.31 -1.95 1.25 -2.07 0.90 -0.12 1.05 0.04 1.29 1.45 0.35 2.23 -0.04 3.75 -1.17 4.26 -1.45 0.66 -4.57 0.90 -5.86 0.39z"/>
  <path d="M240.78 253.01 c-0.08 -0.27 -0.12 -3.05 -0.08 -6.13 l0.12 -5.66 4.30 0 4.30 0 0 0.98 c0 0.94 -0.12 0.98 -2.73 1.09 -2.97 0.12 -3.71 0.51 -3.71 1.88 0 0.90 0.12 0.94 2.97 0.94 l2.93 0 -0.12 1.09 c-0.12 1.02 -0.23 1.05 -2.46 1.17 -2.62 0.16 -3.32 0.55 -3.32 1.88 0 0.90 0.08 0.94 3.32 0.94 l3.32 0 0 1.17 0 1.17 -4.30 0 c-3.16 0 -4.38 -0.12 -4.53 -0.51z"/>
  <path d="M254.30 247.30 l0 -6.29 0.90 0 c1.17 0 1.68 0.59 3.98 4.61 l1.84 3.24 2.19 -3.75 c1.95 -3.28 2.30 -3.71 3.28 -3.71 l1.13 0 -0.12 5.98 -0.12 5.94 -0.98 0 c-0.94 0 -0.98 -0.08 -1.09 -3.01 -0.08 -1.68 -0.27 -3.05 -0.47 -3.05 -0.20 0 -0.98 0.94 -1.72 2.11 -0.74 1.17 -1.52 2.23 -1.80 2.38 -0.63 0.39 -1.41 -0.39 -2.66 -2.58 -1.52 -2.73 -1.99 -2.50 -2.11 1.13 -0.12 2.97 -0.12 3.01 -1.17 3.13 l-1.09 0.12 0 -6.25z"/>
  <path d="M305.35 253.24 c-0.16 -0.12 -0.27 -2.42 -0.27 -5.08 l0 -4.80 -1.99 0 c-1.91 0 -1.95 -0.04 -1.84 -1.05 l0.12 -1.09 5.08 0 5.08 0 0.12 1.09 c0.12 0.90 0 1.05 -0.86 1.05 -0.51 0 -1.41 0.16 -1.95 0.39 -1.02 0.35 -1.02 0.43 -1.02 4.61 0 2.77 -0.16 4.38 -0.47 4.69 -0.51 0.51 -1.60 0.63 -1.99 0.20z"/>
  <path d="M334.84 247.38 l0.12 -6.17 1.76 -0.12 c0.98 -0.08 2.70 -0.04 3.87 0.12 4.06 0.51 5.59 3.71 3.36 6.99 -0.55 0.78 -0.98 1.56 -0.98 1.72 0 0.16 0.43 0.94 0.98 1.68 1.02 1.56 0.94 1.91 -0.47 1.91 -0.63 0 -1.29 -0.51 -2.15 -1.76 -1.13 -1.60 -1.41 -1.80 -2.66 -1.68 -1.33 0.12 -1.37 0.20 -1.48 1.80 -0.12 1.52 -0.20 1.64 -1.29 1.64 l-1.17 0 0.12 -6.13z m7.23 -0.74 c0.59 -0.94 0.59 -1.13 0.08 -2.07 -0.51 -0.90 -0.86 -1.02 -2.81 -1.13 l-2.23 -0.12 0 2.19 0 2.15 2.15 0 c1.88 0 2.23 -0.12 2.81 -1.02z"/>
  <path d="M348.75 253.24 c-0.39 -0.08 -0.70 -0.23 -0.70 -0.31 0 -0.20 2.38 -5.70 3.91 -9.10 1.25 -2.73 1.37 -2.85 2.50 -2.73 1.37 0.12 1.48 0.31 4.53 7.62 1.48 3.52 1.76 4.41 1.29 4.57 -1.17 0.47 -1.72 0.20 -2.30 -1.13 l-0.59 -1.41 -2.81 0.12 c-2.70 0.12 -2.85 0.16 -3.59 1.37 -0.78 1.25 -0.98 1.37 -2.23 1.02z m7.50 -4.96 c0 -0.55 -1.60 -3.75 -1.88 -3.75 -0.16 0 -0.70 0.90 -1.13 1.95 l-0.82 1.95 1.91 0 c1.05 0 1.91 -0.08 1.91 -0.16z"/>
  <path d="M364.65 253.05 c-0.12 -0.31 -0.16 -3.09 -0.12 -6.17 l0.12 -5.66 1.17 0 1.17 0 0 6.05 0 6.05 -1.09 0.12 c-0.63 0.08 -1.13 -0.08 -1.25 -0.39z"/>
  <path d="M372.34 247.38 c0.12 -5.98 0.16 -6.17 0.98 -6.29 0.63 -0.08 1.52 0.70 3.91 3.63 l3.05 3.79 0.20 -3.67 0.20 -3.63 1.17 0 1.17 0 0.12 5.98 0.12 5.94 -1.17 0 c-0.98 0 -1.56 -0.51 -3.83 -3.32 -1.45 -1.84 -2.85 -3.32 -3.13 -3.32 -0.31 0 -0.51 1.05 -0.59 3.44 -0.12 3.40 -0.12 3.40 -1.21 3.52 l-1.09 0.12 0.12 -6.17z"/>
  <path d="M388.55 253.24 c-0.43 -0.39 -0.31 -11.76 0.12 -12.03 0.20 -0.12 0.82 -0.12 1.37 0.04 l0.98 0.23 -0.04 5.66 0 5.63 -0.98 0.35 c-1.17 0.47 -1.13 0.47 -1.45 0.12z"/>
  <path d="M396.09 247.46 l0 -6.05 1.13 0 c0.98 0 1.56 0.47 3.48 2.85 3.63 4.45 3.59 4.41 3.59 0.82 0 -3.52 0.27 -4.18 1.60 -3.98 0.94 0.12 0.94 0.12 1.05 6.09 l0.12 5.94 -1.13 0 c-0.94 0 -1.56 -0.51 -3.55 -2.93 -1.52 -1.88 -2.70 -2.93 -3.16 -2.93 -0.70 0 -0.78 0.27 -0.78 3.13 l0 3.13 -1.17 0 -1.17 0 0 -6.05z"/>
  <path d="M415.78 253.13 c-2.85 -0.90 -4.84 -4.22 -4.30 -7.19 0.35 -1.84 2.23 -3.98 4.02 -4.57 1.76 -0.59 4.84 -0.27 6.21 0.59 1.02 0.70 1.02 0.70 0.23 1.48 -0.63 0.63 -0.90 0.70 -1.56 0.35 -1.48 -0.78 -3.83 -0.51 -5.12 0.59 -1.02 0.86 -1.21 1.29 -1.21 2.77 0 1.41 0.23 1.95 1.17 2.89 1.02 1.02 1.41 1.17 3.01 1.05 l1.88 -0.12 0.12 -2.03 c0.12 -1.99 0.16 -2.07 1.29 -2.07 l1.13 0 0 2.54 c0 2.23 -0.12 2.58 -0.94 3.13 -1.17 0.78 -4.34 1.05 -5.94 0.59z"/>
  <path d="M131.13 252.27 c-0.12 -0.51 -0.16 -3.09 -0.16 -5.78 l0.08 -4.88 1.29 -0.12 1.25 -0.12 0 5.86 0 5.90 -1.13 0 c-0.86 0 -1.17 -0.23 -1.33 -0.86z"/>
  <path d="M273.05 247.07 l0 -6.09 4.22 0.12 4.18 0.12 0.12 1.09 0.12 1.05 -3.13 0 -3.16 0 0 1.37 0 1.33 2.85 0.12 c2.58 0.12 2.81 0.20 2.93 0.98 0.12 0.82 -0.04 0.86 -2.73 0.98 l-2.85 0.12 -0.12 1.48 -0.12 1.45 3.32 0 c3.32 0 3.36 0 3.36 0.98 l0 0.98 -4.49 0 -4.49 0 0 -6.05z"/>
  <path d="M286.72 247.07 l0 -6.05 0.90 0 c0.90 0 2.42 1.52 5.74 5.86 l1.37 1.72 0.20 -3.67 0.20 -3.71 1.17 0 1.17 0 0 5.86 0 5.86 -1.17 0.12 c-1.05 0.08 -1.41 -0.23 -3.44 -2.85 -1.45 -1.88 -2.54 -2.93 -3.01 -2.93 -0.70 0 -0.78 0.27 -0.78 2.93 l0 2.93 -1.17 0 -1.17 0 0 -6.05z"/>
  <path d="M324.61 248.28 l0 -4.88 -2.03 -0.12 c-1.76 -0.12 -2.07 -0.23 -2.07 -0.90 0 -0.74 0.31 -0.78 5.20 -0.90 l5.16 -0.12 0 1.02 c0 0.82 -0.20 0.98 -1.21 0.98 -2.54 0 -2.70 0.31 -2.70 5.27 l0 4.49 -1.17 0 -1.17 0 0 -4.84z"/>
  <path d="M153.24 249.34 c-1.91 -0.16 -2.07 -0.23 -2.07 -1.13 0 -0.94 0.08 -0.98 2.46 -0.86 2.27 0.12 2.42 0.20 2.42 1.05 0 1.09 -0.08 1.09 -2.81 0.94z"/>
  <path d="M49.34 226.91 c-2.97 -0.94 -5.39 -2.70 -7.03 -5.20 -2.27 -3.32 -2.46 -4.69 -2.46 -16.48 0 -9.49 0.08 -10.90 0.78 -13.13 0.86 -2.77 3.01 -5.59 5.47 -7.15 3.28 -2.07 4.18 -2.15 23.52 -2.15 l17.89 0 0 4.80 0 4.84 -4.41 0.23 c-2.38 0.16 -9.65 0.27 -16.09 0.31 -6.45 0 -12.42 0.12 -13.24 0.27 -1.02 0.20 -1.80 0.63 -2.34 1.37 -0.78 1.05 -0.82 1.56 -0.82 10.63 0 9.06 0.04 9.57 0.82 10.63 1.45 1.95 2.19 2.03 19.80 2.03 l16.29 0.04 0 4.88 0 4.88 -17.85 -0.04 c-16.68 0 -18.05 -0.04 -20.31 -0.78z"/>
  <path d="M94.14 205.27 l0 -22.46 1.48 -0.04 c0.78 0 8.91 0 18.01 0.04 13.75 0.04 16.88 0.16 18.36 0.66 3.59 1.17 5.90 3.20 7.73 6.76 0.98 1.95 1.09 2.54 1.09 6.25 0 3.59 -0.12 4.38 -1.02 6.29 -1.17 2.50 -3.20 4.69 -5.43 5.82 -0.86 0.43 -1.56 0.94 -1.56 1.13 0 0.16 1.05 2.58 2.38 5.35 3.09 6.48 5.43 11.80 5.43 12.27 0 0.23 -2.34 0.39 -5.74 0.39 l-5.78 0 -3.95 -8.71 -3.91 -8.67 -8.20 0 -8.16 0 -0.12 8.71 -0.08 8.67 -5.27 0 -5.27 0 0 -22.46z m34.88 -5.66 c2.19 -1.72 1.56 -5.70 -1.02 -6.60 -1.48 -0.55 -20.94 -0.59 -22.30 -0.04 -0.98 0.35 -1.02 0.47 -1.02 3.91 l0 3.52 11.68 0 c11.13 0 11.68 -0.04 12.66 -0.78z"/>
  <path d="M147.27 205.31 c0 -17.58 0.12 -22.46 0.51 -22.58 0.23 -0.08 2.62 -0.08 5.27 0 l4.77 0.16 -0.08 22.34 -0.12 22.30 -5.16 0.12 -5.20 0.12 0 -22.46z"/>
  <path d="M164.45 222.89 l0 -4.88 16.56 -0.12 16.56 -0.12 1.02 -0.94 c0.55 -0.51 1.09 -1.41 1.21 -2.03 0.27 -1.25 -0.70 -3.63 -1.68 -4.10 -0.35 -0.20 -6.02 -0.43 -12.58 -0.55 l-11.91 -0.20 -2.23 -1.09 c-2.89 -1.41 -5.23 -3.75 -6.48 -6.45 -0.90 -1.95 -1.05 -2.73 -1.02 -5.94 0 -2.97 0.20 -4.10 0.86 -5.63 1.41 -3.13 3.32 -5.12 6.25 -6.56 l2.62 -1.29 18.24 -0.12 18.28 -0.12 0 4.92 0 4.88 -2.42 0.04 c-1.37 0 -9.02 0.16 -16.99 0.31 -14.10 0.23 -14.61 0.27 -15.39 1.05 -0.90 0.94 -1.09 3.05 -0.39 4.41 0.94 1.68 1.64 1.80 14.10 1.99 11.88 0.20 11.91 0.20 14.14 1.25 2.58 1.21 4.96 3.52 6.21 6.09 0.78 1.56 0.94 2.42 0.94 5.74 0 3.40 -0.12 4.18 -1.02 6.09 -1.45 3.09 -3.52 5.20 -6.52 6.68 l-2.62 1.29 -17.85 0.12 -17.89 0.12 0 -4.88z"/>
  <path d="M217.19 205.27 c0 -12.34 0.12 -22.46 0.31 -22.46 1.76 -0.12 9.49 -0.08 9.61 0.04 0.16 0.16 0.43 42.50 0.27 44.22 -0.04 0.59 -0.55 0.66 -5.12 0.66 l-5.08 0 0 -22.46z"/>
  <path d="M234.38 222.85 l0 -4.88 16.02 0 c17.11 0 17.73 -0.08 18.75 -1.91 0.70 -1.37 0.47 -3.44 -0.55 -4.61 l-0.94 -1.09 -12.07 -0.20 c-11.95 -0.20 -12.03 -0.20 -14.18 -1.21 -3.05 -1.45 -4.88 -3.16 -6.25 -5.94 -3.87 -7.89 0 -17.34 8.01 -19.61 2.30 -0.66 2.54 -0.66 21.99 -0.63 l14.92 0.04 0 4.84 0 4.84 -16.60 0.16 c-15.90 0.16 -16.64 0.20 -17.66 0.94 -1.48 1.09 -1.84 2.73 -0.98 4.45 1.05 2.15 2.03 2.30 13.79 2.30 9.45 0.04 10.66 0.12 13.09 0.86 8.05 2.50 11.25 12.70 6.37 20.27 -1.72 2.66 -4.22 4.53 -7.46 5.55 -2.11 0.63 -3.91 0.70 -19.30 0.70 l-16.95 0 0 -4.88z"/>
  <path d="M197.07 99.26 c-0.35 -0.63 -1.29 -8.13 -1.56 -12.73 -0.27 -4.88 0.31 -16.68 1.17 -23.24 0.31 -2.46 0.59 -4.57 0.59 -4.73 0 -0.12 1.29 -0.35 2.85 -0.51 4.73 -0.47 14.10 -2.50 19.14 -4.18 10.82 -3.59 22.93 -10.70 31.41 -18.44 1.13 -1.05 2.30 -1.84 2.62 -1.76 0.31 0.08 2.27 1.52 4.34 3.24 14.84 12.27 28.20 18.20 47.07 20.86 l4.49 0.66 0.70 5.63 c0.94 7.34 1.09 26.91 0.23 32.03 l-0.55 3.32 -5.20 0.12 c-4.41 0.08 -5.16 0 -5.16 -0.51 0 -0.31 0.31 -2.23 0.66 -4.18 1.13 -6.29 0.82 -27.50 -0.39 -27.85 -0.27 -0.04 -2.58 -0.51 -5.16 -0.98 -8.67 -1.60 -17.19 -4.61 -25.20 -8.91 -3.95 -2.11 -11.48 -6.95 -13.79 -8.91 -1.64 -1.37 -2.70 -1.17 -5.86 1.17 -11.99 8.87 -25 14.61 -38.95 17.23 -1.84 0.31 -3.52 0.82 -3.75 1.09 -0.27 0.27 -0.66 3.16 -0.94 6.72 -0.55 6.76 -0.31 13.40 0.59 20.08 0.31 2.27 0.59 4.30 0.59 4.61 0 0.39 -1.09 0.51 -4.84 0.51 -2.70 0 -4.96 -0.16 -5.12 -0.35z"/>
  <path d="M218.05 88.63 c-5.20 -2.62 -2.81 -10.27 3.01 -9.61 3.40 0.39 5.55 4.22 4.06 7.19 -1.45 2.93 -4.22 3.87 -7.07 2.42z"/>
  <path d="M284.14 89.02 c-1.84 -0.55 -2.97 -1.99 -3.20 -4.18 -0.43 -4.61 4.10 -7.54 7.77 -5.04 3.24 2.19 3.09 6.68 -0.27 8.91 -1.21 0.78 -2.38 0.86 -4.30 0.31z"/>
  <path d="M250.23 71.05 c-0.55 -0.43 -1.29 -1.33 -1.60 -1.91 -1.72 -3.32 0.86 -7.42 4.69 -7.42 3.87 0 6.45 4.06 4.69 7.42 -0.98 1.91 -2.42 2.73 -4.69 2.73 -1.48 0 -2.34 -0.23 -3.09 -0.82z"/>
 </g>
 <g fill="#e82944">
  <path d="M235.66 249.80 c0 -0.86 0.08 -1.17 0.16 -0.66 0.08 0.47 0.08 1.17 0 1.56 -0.12 0.35 -0.20 -0.04 -0.16 -0.90z"/>
  <path d="M320.08 227.38 c-3.55 -0.86 -7.19 -3.63 -8.71 -6.56 -1.45 -2.89 -1.64 -5.47 -1.52 -21.99 l0.12 -15.82 5.20 -0.12 5.16 -0.12 0 15.70 c0 13.44 0.08 15.86 0.63 16.95 0.31 0.70 0.90 1.45 1.25 1.64 0.35 0.16 8.32 0.39 17.66 0.51 l16.99 0.20 0.12 5 0.12 4.96 -17.89 -0.04 c-9.84 -0.04 -18.44 -0.16 -19.10 -0.31z"/>
  <path d="M363.24 224.14 c-0.04 -1.99 -0.04 -9.61 0.04 -16.91 0.08 -14.65 0.20 -15.39 2.77 -18.91 1.48 -2.11 5.31 -4.57 7.89 -5.12 1.37 -0.31 6.13 -0.39 14.34 -0.31 11.76 0.12 12.38 0.16 14.18 0.98 2.77 1.33 5.82 4.41 7.15 7.27 l1.13 2.42 0.12 17.11 0.12 17.07 -5.27 0 -5.31 0 0 -5.66 0 -5.66 -13.48 0 -13.48 0 0 5.66 0 5.66 -5.08 0 -5.08 0 -0.04 -3.59z m37.15 -23.16 c0 -5 -0.47 -6.72 -2.03 -7.54 -0.74 -0.43 -3.32 -0.51 -11.60 -0.39 l-10.66 0.12 -1.33 1.45 -1.33 1.48 0 4.69 0 4.69 13.48 0 13.48 0 0 -4.49z"/>
  <path d="M417.19 205.70 c0 -18.36 0.08 -22.07 0.55 -22.46 0.39 -0.35 5.35 -0.43 18.63 -0.35 l18.13 0.12 2.23 1.05 c2.73 1.25 5.04 3.59 6.45 6.48 0.94 1.95 1.05 2.70 1.09 5.94 0 3.48 -0.08 3.91 -1.33 6.29 l-1.29 2.54 1.05 2.11 c2.73 5.43 1.64 12.07 -2.81 16.84 -3.40 3.63 -2.38 3.48 -23.87 3.48 l-18.83 0 0 -22.03z m34.18 11.72 c0.70 -0.31 1.48 -0.90 1.72 -1.33 0.70 -1.33 0.51 -3.91 -0.35 -4.77 -0.74 -0.74 -1.29 -0.78 -12.42 -0.78 -8.52 0 -11.76 0.12 -12.11 0.47 -0.51 0.51 -0.66 6.21 -0.20 6.68 0.12 0.16 5.16 0.27 11.13 0.27 8.52 0 11.17 -0.12 12.23 -0.55z m0.86 -17.81 c2.07 -1.25 2.15 -5.16 0.08 -6.25 -0.39 -0.23 -5.47 -0.39 -11.91 -0.39 -13.32 0 -12.66 -0.23 -12.66 4.10 0 1.52 0.12 2.93 0.27 3.05 0.12 0.16 5.35 0.27 11.60 0.27 10.59 0 11.45 -0.04 12.62 -0.78z"/>
  <path d="M247.46 164.38 c-13.55 -6.88 -23.79 -14.77 -32.15 -24.73 -4.96 -5.90 -11.02 -15.86 -10.47 -17.23 0.16 -0.43 1.33 -0.55 5.43 -0.55 l5.23 0 1.88 3.13 c6.68 11.37 18.09 21.80 31.91 29.26 l3.79 2.03 3.59 -1.80 c14.38 -7.23 27.58 -19.57 33.52 -31.33 l0.82 -1.68 5.66 0 5.66 0 -0.39 0.94 c-1.48 3.95 -6.25 11.60 -10.27 16.64 -3.20 3.95 -10.39 11.29 -13.75 14.02 -7.30 5.94 -21.13 13.71 -24.34 13.71 -0.98 0 -2.97 -0.78 -6.13 -2.42z"/>
  <path d="M255.12 137.62 c-0.59 -0.51 -1.48 -2.77 -2.97 -7.73 -1.17 -3.87 -3.83 -12.58 -5.94 -19.34 -3.71 -11.95 -3.87 -12.30 -4.88 -12.42 -1.41 -0.16 -1.76 0.47 -4.22 7.54 -1.13 3.24 -2.30 6.33 -2.58 6.95 l-0.59 1.05 -30.47 -0.08 -30.51 -0.12 -0.74 -0.94 c-1.02 -1.25 -0.98 -3.20 0.16 -4.26 l0.90 -0.86 25.78 -0.04 c14.14 -0.04 26.88 -0.16 28.28 -0.31 l2.50 -0.23 4.38 -13.28 c2.38 -7.27 4.57 -13.55 4.80 -13.95 0.63 -1.02 3.75 -0.98 4.30 0.04 0.23 0.39 1.76 5 3.36 10.23 1.64 5.23 4.38 13.95 6.05 19.30 1.72 5.39 3.20 10.23 3.36 10.86 0.55 2.38 1.33 1.45 3.01 -3.83 0.55 -1.72 2.70 -8.48 4.77 -15.04 2.58 -8.16 4.02 -12.15 4.57 -12.62 0.94 -0.78 2.62 -0.86 3.55 -0.16 0.35 0.23 2.11 4.61 3.91 9.65 l3.32 9.18 27.11 0.12 c26.80 0.08 27.15 0.08 27.89 0.90 1.17 1.29 0.94 3.36 -0.51 4.65 l-1.21 1.09 -24.49 0.16 -24.45 0.12 -1.80 2.07 c-1.84 2.15 -2.70 2.42 -4.57 1.60 -1.02 -0.47 -1.29 -1.05 -4.06 -8.75 -0.98 -2.66 -1.29 -3.13 -2.11 -3.24 -0.55 -0.08 -1.21 0.20 -1.56 0.59 -0.31 0.39 -2.30 6.05 -4.38 12.62 -5.66 17.81 -5.66 17.81 -6.45 18.52 -0.90 0.82 -2.46 0.78 -3.52 -0.04z"/>
  <path d="M213.67 98.98 c0 -1.68 1.21 -6.33 1.76 -6.80 0.59 -0.47 2.77 -0.39 2.66 0.12 -0.04 0.16 -0.43 1.95 -0.94 3.98 l-0.82 3.71 -1.33 0 c-1.17 0 -1.33 -0.12 -1.33 -1.02z"/>
  <path d="M290.08 99.14 c-0.12 -0.51 -0.51 -2.11 -0.86 -3.55 -0.70 -2.93 -0.43 -3.79 1.21 -3.79 0.78 0 0.98 0.39 1.72 3.05 0.47 1.68 0.82 3.52 0.82 4.10 0 0.94 -0.16 1.05 -1.37 1.05 -1.09 0 -1.41 -0.16 -1.52 -0.86z"/>
  <path d="M226.02 77.77 l-1.05 -1.09 1.48 -1.21 c4.84 -3.83 9.57 -6.45 14.49 -8.09 3.59 -1.17 4.10 -1.05 3.91 0.94 -0.12 1.25 -0.39 1.48 -3.13 2.85 -0.39 0.16 -0.94 0.31 -1.25 0.31 -0.98 0 -8.13 3.83 -10.59 5.66 -1.29 0.98 -2.42 1.76 -2.54 1.76 -0.16 0 -0.74 -0.51 -1.33 -1.13z"/>
  <path d="M276.17 76.33 c-3.16 -2.38 -8.63 -5.16 -12.23 -6.25 -2.15 -0.66 -2.27 -0.74 -2.15 -1.88 0.16 -1.76 1.72 -1.76 6.09 -0.04 5.16 2.07 13.36 7.30 13.36 8.55 0 0.59 -1.25 1.80 -1.80 1.80 -0.20 -0.04 -1.68 -1.02 -3.28 -2.19z"/>
 </g>
</svg>